<svg width="117" height="36" viewBox="0 0 117 36" fill="none" xmlns="http://www.w3.org/2000/svg">
<g clip-path="url(#clip0_568_15281)">
<mask id="mask0_568_15281" style="mask-type:luminance" maskUnits="userSpaceOnUse" x="11" y="0" width="22" height="17">
<path d="M13.6333 0.285714C12.6907 0.71746 11.9062 1.19365 11.9062 2.76825V7.02857C11.9062 7.02857 17.5617 6.97778 18.479 6.97778C19.3963 6.97778 19.9403 7.65714 19.9403 8.44444V12.4064C19.9403 12.9778 20.4337 13.4921 21.0221 13.4921H29.6634C31.0362 13.4921 32.1116 15.0286 32.1116 16.1714V11.7143C32.1116 9.93651 30.9223 7.53651 29.2775 6.59048C27.6201 5.64444 19.0547 0.596825 18.2702 0.285714C17.8464 0.114286 16.8089 0 15.7904 0C14.9238 0 14.0698 0.0825397 13.6333 0.285714Z" fill="white"/>
</mask>
<g mask="url(#mask0_568_15281)">
<path d="M32.1053 0H11.9062V16.1714H32.1053V0Z" fill="url(#paint0_linear_568_15281)"/>
</g>
<mask id="mask1_568_15281" style="mask-type:luminance" maskUnits="userSpaceOnUse" x="0" y="0" width="14" height="22">
<path d="M3.29586 6.06977C1.25888 7.20628 0 9.36501 0 11.7015V19.0539C0 20.3999 1.08808 21.492 2.4292 21.492H5.61119V14.5142C5.61119 13.9174 6.26277 13.3523 6.80681 13.3523H10.691C11.3679 13.3523 11.9182 12.7999 11.9182 12.1206V2.76818C11.9182 1.71422 12.2725 1.15549 12.7849 0.768184L3.29586 6.06977ZM12.7786 0.768184L13.6389 0.285645C13.329 0.431676 13.0316 0.577708 12.7786 0.768184Z" fill="white"/>
</mask>
<g mask="url(#mask1_568_15281)">
<path d="M13.6389 0.285645H0V21.4983H13.6389V0.285645Z" fill="url(#paint1_linear_568_15281)"/>
</g>
<mask id="mask2_568_15281" style="mask-type:luminance" maskUnits="userSpaceOnUse" x="0" y="18" width="21" height="17">
<path d="M0 23.2125C0 24.9839 1.17032 27.3903 2.81508 28.3363C4.46618 29.2823 13.0316 34.3299 13.8161 34.6474C14.6005 34.9649 17.5105 35.0792 18.453 34.6474C19.3956 34.2157 20.18 33.7395 20.18 32.1649V27.9046C20.18 27.9046 14.5246 27.9553 13.6073 27.9553C12.69 27.9553 12.146 27.276 12.146 26.4887V22.5268C12.146 21.9553 11.6526 21.5045 11.0642 21.5045H2.4292C1.05645 21.5045 0 20.2157 0 18.8696V23.2188V23.2125Z" fill="white"/>
</mask>
<g mask="url(#mask2_568_15281)">
<path d="M20.18 18.8633H0V35.0792H20.18V18.8633Z" fill="url(#paint2_linear_568_15281)"/>
</g>
<mask id="mask3_568_15281" style="mask-type:luminance" maskUnits="userSpaceOnUse" x="18" y="13" width="15" height="22">
<path d="M18.4531 34.6414C18.7631 34.4954 19.0604 34.3493 19.3135 34.1589L18.4531 34.6414ZM26.4872 13.4858V20.4065C26.4872 21.0033 25.8356 21.4922 25.2916 21.4922H21.205C20.6483 21.4922 20.1865 21.9557 20.1865 22.5144V32.1589C20.1865 33.2128 19.8322 33.7779 19.3198 34.1589L28.8025 28.8509C30.8522 27.7081 32.1174 25.5366 32.1174 23.1874V16.1652C32.1174 15.0033 31.0293 13.4858 29.6692 13.4858H26.4872Z" fill="white"/>
</mask>
<g mask="url(#mask3_568_15281)">
<path d="M32.111 13.4922H18.4531V34.6477H32.111V13.4922Z" fill="url(#paint3_linear_568_15281)"/>
</g>
<mask id="mask4_568_15281" style="mask-type:luminance" maskUnits="userSpaceOnUse" x="0" y="0" width="117" height="36">
<path d="M117 0H0V36H117V0Z" fill="white"/>
</mask>
<g mask="url(#mask4_568_15281)">
<path d="M17.3679 18.2604L18.8103 16.254H17.5387L16.6847 17.6001L15.8497 16.2985C16.0395 16.2286 16.3368 16.1207 16.5329 15.8286C16.5329 15.816 16.5456 15.8096 16.5519 15.7969C16.6594 15.6318 16.7353 15.4096 16.7353 15.0985C16.7353 14.6985 16.5962 14.3556 16.3874 14.1271C15.9825 13.689 15.4132 13.6826 14.9577 13.6826H13.0156V18.0699H14.0278V16.5207H14.6098C14.6098 16.5207 14.673 16.5207 14.7047 16.5207L16.0078 18.2921L14.3188 20.6477H15.5713L16.7037 18.9906L17.8234 20.6477H19.076L17.3743 18.2667L17.3679 18.2604ZM14.0278 14.4318H15.0147C15.2424 14.4318 15.6473 14.5017 15.6473 15.0667C15.6473 15.6318 15.1475 15.7207 14.9893 15.7207H14.0278V14.4382V14.4318Z" fill="#1388AE"/>
<path d="M47.5516 24.9397C49.3039 24.9397 49.8669 25.0476 51.9545 24.8317C52.0241 25.9111 52.7959 27.2063 53.4411 27.5936C51.6319 27.5936 47.5642 27.4921 46.7165 27.3714C46.1599 27.2889 44.7998 27.0857 44.6226 27.1175C39.4732 28.1587 36.5 22.7428 36.5 14.5333C36.5 7.23174 39.2518 2.03809 44.1735 2.03809C49.0951 2.03809 51.3029 7.66983 51.3029 14.2413C51.3029 21.6 49.8985 22.9905 47.5516 24.9397ZM47.2859 14.419C47.2859 9.80317 46.5268 5.40951 43.9584 5.40951C41.39 5.40951 40.4854 9.84126 40.517 14.4889C40.4791 19.3905 41.3837 23.7143 43.9584 23.7143C46.5331 23.7143 47.2859 19.3905 47.2859 14.4127" fill="#1388AE"/>
<path d="M65.5061 21.6891C65.5061 23.5812 65.5756 25.3209 65.6516 26.8129H62.3241L62.071 24.9589H62.0014C61.3119 26.0129 59.9391 27.105 58.054 27.105C54.834 27.105 53.5625 24.6732 53.5625 20.0574V9.11768H57.4024V19.5812C57.4024 22.0891 57.8705 23.8669 59.4647 23.8669C60.6224 23.8669 61.236 22.8129 61.4194 22.1209C61.5649 21.7209 61.6345 21.1748 61.6345 20.597V9.11768H65.5061V21.6891Z" fill="#1388AE"/>
<path d="M75.9017 26.8125L75.6866 24.9966H75.6171C74.7124 26.3744 73.4093 27.1046 71.891 27.1046C69.3543 27.1046 67.4375 24.9585 67.4375 21.8728C67.4375 17.3331 71.2774 15.4093 75.2565 15.3712V14.9014C75.2565 13.0855 74.5353 11.7776 72.6122 11.7776C71.347 11.7776 70.2969 12.1395 69.3163 12.7617L68.5952 10.1077C69.4618 9.5617 71.309 8.83789 73.4472 8.83789C78.0083 8.83789 79.166 11.9617 79.166 15.7395V22.7871C79.166 24.1649 79.2039 25.6569 79.3811 26.8188H75.9081L75.9017 26.8125ZM75.3577 17.949C73.8394 17.9871 71.1256 18.3871 71.1256 21.4728C71.1256 23.4728 72.1757 24.1966 73.0424 24.1966C73.9849 24.1966 74.9275 23.5427 75.2502 22.1585C75.3197 21.9046 75.3577 21.5807 75.3577 21.2506V17.9427V17.949Z" fill="#1388AE"/>
<path d="M85.8872 1.67627H82.0156V26.8128H85.8872V1.67627Z" fill="#1388AE"/>
<path d="M92.882 4.50787C92.92 5.81581 92.0153 6.72375 90.7438 6.72375C89.6241 6.72375 88.7195 5.81581 88.7511 4.50787C88.7132 3.1301 89.6557 2.25391 90.8134 2.25391C91.9711 2.25391 92.8757 3.12375 92.8757 4.50787M88.8966 9.12375H92.7681V26.8126H88.8966V9.12375Z" fill="#1388AE"/>
<path d="M100.222 4.40039V9.1242H103.625V11.9559H100.222V21.1115C100.222 23.2893 101.057 23.8353 102.031 23.8353C102.468 23.8353 102.828 23.7972 103.227 23.7274L103.303 26.7432C102.721 26.9274 101.854 27.0353 100.766 27.0353C99.5322 27.0353 98.4125 26.7115 97.6534 25.9433C96.7867 25.0734 96.3502 23.7655 96.3502 21.1496V11.9559H94.25V9.1242H96.3502V5.38452L100.222 4.40039Z" fill="#1388AE"/>
<path d="M108.203 9.11768L110.227 18.7431C110.48 19.9431 110.626 20.997 110.809 22.0129H110.879C111.024 21.0669 111.239 19.905 111.461 18.8129L113.2 9.11133H117.002L113.706 21.7526C112.764 25.5685 111.631 29.4669 109.639 31.8986C108.266 33.6066 106.457 34.5716 104.837 34.5716V31.0732C105.843 31.0732 106.9 30.2732 107.671 29.397C108.664 28.2732 108.854 26.3558 108.854 26.1018C108.854 25.8859 108.816 25.6637 108.747 25.4478L104.078 9.09863H108.203V9.11768Z" fill="#1388AE"/>
<path d="M40.9776 34.4953C40.8384 34.5651 40.5853 34.6159 40.2754 34.6159C39.181 34.6159 38.5547 33.7207 38.5547 32.235C38.5547 30.3874 39.5289 29.7271 40.3766 29.7271C40.6866 29.7271 40.9016 29.7905 41.0029 29.8477L40.8637 30.489C40.7498 30.4382 40.636 30.3937 40.4082 30.3937C39.8895 30.3937 39.3581 30.8699 39.3581 32.1842C39.3581 33.4985 39.8389 33.9366 40.4145 33.9366C40.5917 33.9366 40.7688 33.8985 40.8827 33.8477L40.9776 34.489V34.4953Z" fill="#425FA1"/>
<path d="M43.7079 32.832C43.7079 34.2352 42.993 34.6352 42.4679 34.6352C41.7341 34.6352 41.2344 34.0256 41.2344 32.8574C41.2344 31.6002 41.8543 31.0542 42.4996 31.0542C43.2207 31.0542 43.7142 31.6955 43.7142 32.8383M41.9998 32.8447C41.9998 33.4288 42.101 34.0574 42.5059 34.0574C42.8791 34.0574 42.9677 33.3653 42.9677 32.8447C42.9677 32.324 42.8855 31.651 42.4933 31.651C42.0821 31.651 42.0062 32.3431 42.0062 32.8447" fill="#425FA1"/>
<path d="M44.2753 32.0828C44.2753 31.6891 44.2627 31.4161 44.25 31.105H44.9079L44.9522 31.5177H44.9648C45.1293 31.251 45.4077 31.0479 45.7682 31.0479C46.1288 31.0479 46.3882 31.2193 46.5084 31.5494H46.521C46.6159 31.3971 46.7361 31.2637 46.869 31.1812C47.0082 31.0986 47.1726 31.0542 47.3498 31.0542C47.8938 31.0542 48.2164 31.4796 48.2164 32.3367V34.5844H47.4636V32.4828C47.4636 32.0637 47.4067 31.6955 47.0651 31.6955C46.8753 31.6955 46.7172 31.8479 46.6476 32.1018C46.6349 32.1717 46.6286 32.2732 46.6286 32.3812V34.5907H45.8695V32.3748C45.8695 32.0637 45.8252 31.6955 45.4836 31.6955C45.3065 31.6955 45.1293 31.8415 45.0661 32.1209C45.0471 32.1907 45.0281 32.2923 45.0281 32.3939V34.5907H44.2753V32.0955V32.0828Z" fill="#425FA1"/>
<path d="M48.9003 32.1971C48.9003 31.7336 48.8813 31.3971 48.875 31.105H49.5329L49.5772 31.524H49.5898C49.7543 31.2002 50.0137 31.0479 50.311 31.0479C51.0006 31.0479 51.3485 31.7971 51.3485 32.8383C51.3485 34.0891 50.8171 34.6352 50.2541 34.6352C49.9504 34.6352 49.767 34.451 49.6658 34.2732H49.6531V35.9494H48.9003V32.2034V32.1971ZM49.6531 33.3082C49.6531 33.4161 49.6658 33.524 49.6911 33.6002C49.7796 33.9367 49.9568 34.0066 50.0833 34.0066C50.4692 34.0066 50.602 33.4605 50.602 32.8447C50.602 32.159 50.4375 31.6955 50.0896 31.6955C49.8998 31.6955 49.729 31.9113 49.6847 32.1399C49.6658 32.2161 49.6594 32.305 49.6594 32.3939V33.3082H49.6531Z" fill="#425FA1"/>
<path d="M54.2547 32.832C54.2547 34.2352 53.5399 34.6352 53.0148 34.6352C52.281 34.6352 51.7812 34.0256 51.7812 32.8574C51.7812 31.6002 52.4012 31.0542 53.0465 31.0542C53.7676 31.0542 54.2611 31.6955 54.2611 32.8383M52.5467 32.8447C52.5467 33.4288 52.6479 34.0574 53.0528 34.0574C53.426 34.0574 53.5146 33.3653 53.5146 32.8447C53.5146 32.324 53.4323 31.651 53.0401 31.651C52.6289 31.651 52.553 32.3431 52.553 32.8447" fill="#425FA1"/>
<path d="M57.1531 33.5748C57.1531 33.9431 57.1658 34.2859 57.1784 34.578H56.5269L56.4762 34.2161H56.4636C56.3307 34.4193 56.0587 34.6351 55.6918 34.6351C55.0592 34.6351 54.8125 34.1589 54.8125 33.251V31.105H55.5653V33.1558C55.5653 33.6447 55.6602 33.9939 55.9702 33.9939C56.1979 33.9939 56.3181 33.7843 56.3497 33.651C56.375 33.5748 56.394 33.4669 56.394 33.3526V31.105H57.1531V33.5685V33.5748Z" fill="#425FA1"/>
<path d="M57.8691 32.0828C57.8691 31.6891 57.8564 31.4161 57.8438 31.105H58.5017L58.5396 31.5113H58.5523C58.7167 31.232 59.0077 31.0479 59.3683 31.0479C59.9503 31.0479 60.254 31.4986 60.254 32.2986V34.5717H59.4948V32.3685C59.4948 32.0256 59.4253 31.6828 59.09 31.6828C58.9065 31.6828 58.7357 31.8225 58.6661 32.1082C58.6472 32.178 58.6282 32.2923 58.6282 32.4193V34.5653H57.8691V32.0701V32.0828Z" fill="#425FA1"/>
<path d="M63.267 29.6509V33.6382C63.267 33.9239 63.2797 34.3175 63.2923 34.5779H62.6407L62.5964 34.1652H62.5775C62.4573 34.4128 62.1979 34.635 61.8626 34.635C61.1857 34.635 60.8125 33.9048 60.8125 32.8572C60.8125 31.6382 61.3376 31.0541 61.9006 31.0541C62.1853 31.0541 62.3877 31.1874 62.5015 31.435H62.5142V29.6572H63.267V29.6509ZM62.5142 32.4382C62.5142 32.3747 62.5142 32.2921 62.5015 32.2223C62.4762 31.9429 62.3181 31.7017 62.0904 31.7017C61.7045 31.7017 61.5716 32.2414 61.5716 32.8636C61.5716 33.562 61.7551 34.0128 62.0777 34.0128C62.2232 34.0128 62.4003 33.9366 62.4889 33.5874C62.5079 33.5239 62.5142 33.4477 62.5142 33.3588V32.4382Z" fill="#425FA1"/>
<path d="M64.7474 30.2032C64.7537 30.4572 64.5766 30.635 64.3299 30.635C64.1085 30.635 63.9313 30.4572 63.9377 30.2032C63.9313 29.9302 64.1148 29.7588 64.3425 29.7588C64.5703 29.7588 64.7474 29.9302 64.7474 30.2032ZM63.9693 31.1048H64.7284V34.5715H63.9693V31.1048Z" fill="#425FA1"/>
<path d="M65.4159 32.0828C65.4159 31.6891 65.4033 31.4161 65.3906 31.105H66.0485L66.0865 31.5113H66.0991C66.2636 31.232 66.5546 31.0479 66.9152 31.0479C67.4972 31.0479 67.8008 31.4986 67.8008 32.2986V34.5717H67.0417V32.3685C67.0417 32.0256 66.9721 31.6828 66.6369 31.6828C66.4534 31.6828 66.2826 31.8225 66.213 32.1082C66.194 32.178 66.1751 32.2923 66.1751 32.4193V34.5653H65.4159V32.0701V32.0828Z" fill="#425FA1"/>
<path d="M70.8675 31.105C70.8485 31.3907 70.8295 31.7336 70.8295 32.1971V34.1653C70.8295 34.9844 70.703 35.3653 70.4436 35.6256C70.2095 35.8669 69.8616 36.0066 69.4125 36.0066C69.1025 36.0066 68.8115 35.9431 68.5901 35.8415L68.7482 35.251C68.9064 35.3272 69.1278 35.4034 69.3998 35.4034C69.8553 35.4034 70.0767 35.1113 70.0767 34.4637V34.1907H70.064C69.9439 34.432 69.6971 34.5653 69.4251 34.5653C68.7229 34.5653 68.375 33.7844 68.375 32.8701C68.375 31.6574 68.919 31.0542 69.501 31.0542C69.811 31.0542 70.0198 31.2447 70.14 31.4796H70.1526L70.1969 31.1113H70.8611L70.8675 31.105ZM70.083 32.3367C70.083 32.2542 70.0704 32.159 70.0451 32.0891C69.9945 31.8986 69.8869 31.6955 69.6655 31.6955C69.3049 31.6955 69.1341 32.178 69.1341 32.8447C69.1341 33.5939 69.3619 33.9558 69.6529 33.9558C69.792 33.9558 69.9565 33.8859 70.0451 33.5939C70.083 33.4986 70.0894 33.4034 70.0894 33.3082V32.3431L70.083 32.3367Z" fill="#425FA1"/>
<path d="M72.7095 29.8477C72.9688 29.7842 73.3041 29.7588 73.6267 29.7588C74.1138 29.7588 74.525 29.8477 74.8097 30.108C75.0754 30.362 75.1703 30.6858 75.1703 31.0858C75.1703 31.6445 74.8983 32.0762 74.4175 32.2985V32.3112C74.7528 32.4318 74.9299 32.7556 75.0185 33.3207C75.126 33.9048 75.2399 34.4191 75.3158 34.5842H74.525C74.4618 34.4509 74.3605 33.981 74.2783 33.4159C74.1834 32.7937 74.0063 32.5905 73.6331 32.5905H73.4559V34.5842H72.7031V29.854L72.7095 29.8477ZM73.4622 32.0001H73.6584C74.1138 32.0001 74.3985 31.6445 74.3985 31.1556C74.3985 30.6667 74.215 30.3683 73.7153 30.3556C73.6204 30.3556 73.5255 30.362 73.4622 30.3874V32.0064V32.0001Z" fill="#425FA1"/>
<path d="M76.3257 31.105L76.5788 31.7843C76.6547 31.9875 76.718 32.1907 76.7749 32.3748H76.7875C76.8508 32.1843 76.9141 31.9748 76.9773 31.7843L77.2304 31.105H77.9958L77.1924 32.8129L77.9958 34.5716H77.1734L76.8951 33.8605C76.8255 33.6828 76.7686 33.505 76.7053 33.3018H76.6926C76.6357 33.4859 76.5661 33.6701 76.5029 33.8605L76.2498 34.5716H75.4844L76.2815 32.8383L75.497 31.0986H76.3194L76.3257 31.105Z" fill="#425FA1"/>
<path d="M81.8719 32.8315C81.8719 34.2347 81.1571 34.6347 80.632 34.6347C79.8982 34.6347 79.3984 34.0251 79.3984 32.8569C79.3984 31.5997 80.0184 31.0537 80.6636 31.0537C81.3848 31.0537 81.8782 31.695 81.8782 32.8378M80.1639 32.8442C80.1639 33.4283 80.2651 34.0569 80.67 34.0569C81.0432 34.0569 81.1318 33.3648 81.1318 32.8442C81.1318 32.3236 81.0495 31.6505 80.6573 31.6505C80.2461 31.6505 80.1702 32.3426 80.1702 32.8442" fill="#425FA1"/>
<path d="M82.5741 34.5779V31.6636H82.125V31.1112H82.5741V30.9398C82.5741 30.5525 82.6437 30.1842 82.9094 29.9049C83.1119 29.6826 83.3965 29.5938 83.6749 29.5938C83.8963 29.5938 84.0608 29.6318 84.181 29.6699L84.0797 30.2668C84.0102 30.235 83.9089 30.216 83.7888 30.216C83.4408 30.216 83.3333 30.5525 83.3333 30.9207V31.1049H83.9406V31.6572H83.3333V34.5715H82.5741V34.5779Z" fill="#425FA1"/>
<path d="M86.1494 33.3207L85.8964 34.5778H85.1562L86.219 29.7778H87.1047L88.0915 34.5778H87.3577L87.1047 33.3207H86.1558H86.1494ZM87.0224 32.7302L86.8263 31.6255C86.7694 31.3143 86.7061 30.8699 86.6492 30.5334H86.6302C86.5796 30.8699 86.51 31.3207 86.4531 31.6255L86.238 32.7302H87.0224Z" fill="#425FA1"/>
<path d="M88.58 32.0828C88.58 31.6891 88.5673 31.4161 88.5547 31.105H89.2126L89.2569 31.5177H89.2695C89.434 31.251 89.7123 31.0479 90.0729 31.0479C90.4335 31.0479 90.6929 31.2193 90.8131 31.5494H90.8257C90.9206 31.3971 91.0408 31.2637 91.1737 31.1812C91.3128 31.0986 91.4773 31.0542 91.6544 31.0542C92.1985 31.0542 92.5211 31.4796 92.5211 32.3367V34.5844H91.7683V32.4828C91.7683 32.0637 91.7114 31.6955 91.3698 31.6955C91.18 31.6955 91.0218 31.8479 90.9523 32.1018C90.9396 32.1717 90.9333 32.2732 90.9333 32.3812V34.5907H90.1742V32.3748C90.1742 32.0637 90.1299 31.6955 89.7883 31.6955C89.6111 31.6955 89.434 31.8415 89.3707 32.1209C89.3518 32.1907 89.3328 32.2923 89.3328 32.3939V34.5907H88.58V32.0955V32.0828Z" fill="#425FA1"/>
<path d="M93.818 33.0478C93.8244 33.8225 94.1849 34.0383 94.5898 34.0383C94.8365 34.0383 95.0516 33.9812 95.2034 33.9113L95.311 34.4574C95.0959 34.559 94.7669 34.6225 94.4443 34.6225C93.5587 34.6225 93.0779 33.9748 93.0779 32.9018C93.0779 31.7526 93.6346 31.0605 94.3684 31.0605C95.1022 31.0605 95.4628 31.7209 95.4628 32.6478C95.4628 32.851 95.4501 32.959 95.4438 33.0542H93.818V33.0478ZM94.7606 32.5082C94.7669 31.9494 94.5835 31.6256 94.3115 31.6256C93.9825 31.6256 93.837 32.1018 93.8244 32.5082H94.7606Z" fill="#425FA1"/>
<path d="M96.0097 32.0828C96.0097 31.759 95.9907 31.4034 95.9844 31.105H96.6423L96.6866 31.632H96.7055C96.8384 31.2764 97.1231 31.0479 97.4077 31.0479C97.4773 31.0479 97.5216 31.0542 97.5596 31.0605V31.8225C97.5153 31.8098 97.471 31.8098 97.4077 31.8098C97.142 31.8098 96.8763 32.032 96.7941 32.4066C96.7751 32.4955 96.7688 32.6034 96.7688 32.7431V34.5717H96.0097V32.0764V32.0828Z" fill="#425FA1"/>
<path d="M98.7318 30.2032C98.7381 30.4572 98.561 30.635 98.3143 30.635C98.0928 30.635 97.9157 30.4572 97.922 30.2032C97.9157 29.9302 98.0992 29.7588 98.3269 29.7588C98.5546 29.7588 98.7318 29.9302 98.7318 30.2032ZM97.9537 31.1048H98.7128V34.5715H97.9537V31.1048Z" fill="#425FA1"/>
<path d="M101.22 34.5082C101.113 34.5653 100.891 34.6225 100.638 34.6225C99.816 34.6225 99.2656 34.0066 99.2656 32.8701C99.2656 31.8352 99.8413 31.0605 100.759 31.0605C100.961 31.0605 101.163 31.1113 101.258 31.1621L101.144 31.7653C101.069 31.7336 100.948 31.6891 100.778 31.6891C100.284 31.6891 100.031 32.2225 100.031 32.8574C100.031 33.5685 100.316 33.9939 100.778 33.9939C100.917 33.9939 101.037 33.9748 101.144 33.9177L101.22 34.5082Z" fill="#425FA1"/>
<path d="M103.157 34.578L103.113 34.2225H103.1C102.923 34.4955 102.67 34.6352 102.373 34.6352C101.873 34.6352 101.5 34.2161 101.5 33.6129C101.5 32.724 102.253 32.3431 103.031 32.3367V32.2415C103.031 31.8859 102.892 31.6256 102.512 31.6256C102.265 31.6256 102.057 31.6955 101.867 31.8161L101.728 31.2955C101.899 31.1875 102.259 31.0479 102.677 31.0479C103.569 31.0479 103.796 31.6637 103.796 32.4002V33.7844C103.796 34.0574 103.803 34.3494 103.841 34.5717H103.157V34.578ZM103.05 32.8383C102.753 32.8447 102.221 32.9272 102.221 33.5304C102.221 33.924 102.424 34.0637 102.594 34.0637C102.778 34.0637 102.961 33.9367 103.025 33.6637C103.037 33.6129 103.044 33.5494 103.044 33.4859V32.8383H103.05Z" fill="#425FA1"/>
</g>
</g>
<defs>
<linearGradient id="paint0_linear_568_15281" x1="3.55766" y1="8.94914" x2="23.1494" y2="8.94914" gradientUnits="userSpaceOnUse">
<stop stop-color="#0E5EAB"/>
<stop offset="0.34" stop-color="#0B79AC"/>
<stop offset="0.52" stop-color="#0A8AAE"/>
<stop offset="1" stop-color="#2ABFC9"/>
</linearGradient>
<linearGradient id="paint1_linear_568_15281" x1="6.60286" y1="19.8851" x2="6.60286" y2="-0.711688" gradientUnits="userSpaceOnUse">
<stop stop-color="#272660"/>
<stop offset="0.27" stop-color="#33417F"/>
<stop offset="0.52" stop-color="#415EA1"/>
<stop offset="0.75" stop-color="#3365AA"/>
<stop offset="1" stop-color="#2071B9"/>
</linearGradient>
<linearGradient id="paint2_linear_568_15281" x1="14.9988" y1="27.5117" x2="-4.4095" y2="27.5117" gradientUnits="userSpaceOnUse">
<stop stop-color="#0E5EAB"/>
<stop offset="0.34" stop-color="#0B79AC"/>
<stop offset="0.52" stop-color="#0A8AAE"/>
<stop offset="1" stop-color="#2ABFC9"/>
</linearGradient>
<linearGradient id="paint3_linear_568_15281" x1="26.2364" y1="26.7382" x2="26.2364" y2="48.8207" gradientUnits="userSpaceOnUse">
<stop stop-color="#272660"/>
<stop offset="0.27" stop-color="#33417F"/>
<stop offset="0.52" stop-color="#415EA1"/>
<stop offset="0.75" stop-color="#3365AA"/>
<stop offset="1" stop-color="#2071B9"/>
</linearGradient>
<clipPath id="clip0_568_15281">
<rect width="117" height="36" fill="white"/>
</clipPath>
</defs>
</svg>
