<svg width="48" height="53" viewBox="0 0 48 53" fill="none" xmlns="http://www.w3.org/2000/svg">
<mask id="mask0_568_15234" style="mask-type:luminance" maskUnits="userSpaceOnUse" x="17" y="0" width="32" height="25">
<path d="M20.3858 0.426784C18.9771 1.0717 17.8047 1.78301 17.8047 4.13506V10.4989C17.8047 10.4989 26.2571 10.423 27.628 10.423C28.9989 10.423 29.812 11.4378 29.812 12.6138V18.5319C29.812 19.3855 30.5494 20.1537 31.4287 20.1537H44.3436C46.3953 20.1537 48.0026 22.4488 48.0026 24.156V17.4981C48.0026 14.8426 46.2251 11.2576 43.7669 9.84449C41.2898 8.43136 28.4883 0.891505 27.316 0.426784C26.6825 0.170714 25.132 0 23.6098 0C22.3145 0 21.0381 0.123293 20.3858 0.426784Z" fill="white"/>
</mask>
<g mask="url(#mask0_568_15234)">
<path d="M47.9931 0H17.8047V24.156H47.9931V0Z" fill="white"/>
</g>
<mask id="mask1_568_15234" style="mask-type:luminance" maskUnits="userSpaceOnUse" x="0" y="0" width="21" height="33">
<path d="M4.92583 9.06677C1.88146 10.7644 0 13.989 0 17.4792V28.4617C0 30.4724 1.62618 32.1036 3.63055 32.1036H8.3862V21.6806C8.3862 20.7891 9.36002 19.945 10.1731 19.945H15.9782C16.9898 19.945 17.8124 19.1199 17.8124 18.1051V4.13504C17.8124 2.56068 18.3418 1.72608 19.1077 1.14755L4.92583 9.06677ZM19.0982 1.14755L20.384 0.426758C19.9208 0.644892 19.4764 0.863026 19.0982 1.14755Z" fill="white"/>
</mask>
<g mask="url(#mask1_568_15234)">
<path d="M20.384 0.426758H0V32.1131H20.384V0.426758Z" fill="white"/>
</g>
<mask id="mask2_568_15234" style="mask-type:luminance" maskUnits="userSpaceOnUse" x="0" y="28" width="31" height="25">
<path d="M0 34.6739C0 37.3199 1.74909 40.9144 4.20728 42.3275C6.67492 43.7407 19.4764 51.2805 20.6488 51.7547C21.8211 52.2289 26.1702 52.3997 27.579 51.7547C28.9877 51.1098 30.16 50.3985 30.16 48.0465V41.6826C30.16 41.6826 21.7077 41.7585 20.3368 41.7585C18.9658 41.7585 18.1528 40.7437 18.1528 39.5677V33.6496C18.1528 32.796 17.4153 32.1227 16.536 32.1227H3.63055C1.57891 32.1227 0 30.1974 0 28.1868V34.6834V34.6739Z" fill="white"/>
</mask>
<g mask="url(#mask2_568_15234)">
<path d="M30.16 28.177H0V52.3994H30.16V28.177Z" fill="white"/>
</g>
<mask id="mask3_568_15234" style="mask-type:luminance" maskUnits="userSpaceOnUse" x="27" y="20" width="21" height="32">
<path d="M27.5742 51.7455C28.0375 51.5274 28.4819 51.3093 28.86 51.0247L27.5742 51.7455ZM39.5815 20.1445V30.4822C39.5815 31.3737 38.6077 32.104 37.7946 32.104H31.687C30.855 32.104 30.1648 32.7963 30.1648 33.6309V48.0372C30.1648 49.6116 29.6353 50.4557 28.8695 51.0247L43.0419 43.096C46.1052 41.3889 47.9961 38.1453 47.9961 34.6362V24.1468C47.9961 22.4112 46.3699 20.1445 44.3372 20.1445H39.5815Z" fill="white"/>
</mask>
<g mask="url(#mask3_568_15234)">
<path d="M47.9866 20.1533H27.5742V51.7543H47.9866V20.1533Z" fill="white"/>
</g>
</svg>
